# xmcd
#
# Track frame offsets:
#	150
#	10783
#	19466
#	30299
#	39569
#	50270
#	62584
#	72150
#	82178
#	91253
#	101512
#	109669
#	119928
#	129300
#	141062
#
# Disc length: 2033 seconds
#
# Revision: 0
# Processed by: cddbd v1.5.1PL0 Copyright (c) Steve Scherf et al.
# Submitted via: MusicWizard 7.1.1b
#
DISCID=c507ef0f
DTITLE=Dane Stinit - Original SUN Recordings
DYEAR=1988
DGENRE=Country
TTITLE0=Don't Knock What You Don't Understand [Take 11]
TTITLE1=Always On The Go
TTITLE2=Don't Knock What You Don't Understand [Take 7]
TTITLE3=Kilgore Jail
TTITLE4=Mean Eyed Cat
TTITLE5=The Ghost Of Mary Lou
TTITLE6=Flip Top Flipper
TTITLE7=Sweet Country Girl
TTITLE8=Muddy Ole River (Near Memphis Tennessee)
TTITLE9=Heartache Catches Up With Me [Take 10]
TTITLE10=Windy City
TTITLE11=Heartache Catches Up With Me [Take 15]
TTITLE12=Shot Out Of The Saddle
TTITLE13=I'm A Rounder
TTITLE14=Mean Eyed Cat
EXTD=(c)1988 Bear Family Records\nOriginal SUN Recordings\nLP Katalog: BFX 15337\nLP upc: 40001271
EXTD=53371
EXTT0=
EXTT1=
EXTT2=
EXTT3=
EXTT4=
EXTT5=
EXTT6=
EXTT7=
EXTT8=
EXTT9=
EXTT10=
EXTT11=
EXTT12=
EXTT13=
EXTT14=
PLAYORDER=
